<svg width="34" height="35" viewBox="0 0 34 35" fill="none" xmlns="http://www.w3.org/2000/svg">
<g id="Frame">
<g id="Homepage">
<g id="Homepage Copy 13">
<g id="Group 15">
<g id="Instagram icon black">
<g id="Group 3">
<mask id="mask0_1_298" style="mask-type:alpha" maskUnits="userSpaceOnUse" x="5" y="6" width="24" height="23">
<g id="mask 2">
<path id="Vector" d="M5.95001 6.39111H28.015V28.4533H5.95001V6.39111Z" fill="white"/>
</g>
</mask>
<g mask="url(#mask0_1_298)">
<path id="Fill 1" fill-rule="evenodd" clip-rule="evenodd" d="M16.9826 6.39111C13.9863 6.39111 13.6106 6.40373 12.4339 6.45751C11.2595 6.51114 10.4575 6.69761 9.75585 6.97031C9.03033 7.25224 8.41506 7.62949 7.80172 8.24282C7.18839 8.85616 6.81114 9.47148 6.52925 10.197C6.25641 10.8987 6.06994 11.7007 6.01641 12.875C5.96268 14.0517 5.95001 14.4274 5.95001 17.4237C5.95001 20.42 5.96268 20.7957 6.01641 21.9724C6.06994 23.1467 6.25641 23.9487 6.52925 24.6505C6.81114 25.3759 7.18839 25.9913 7.80172 26.6046C8.41506 27.2179 9.03033 27.5952 9.75585 27.8771C10.4575 28.1498 11.2595 28.3363 12.4339 28.3899C13.6106 28.4436 13.9863 28.4563 16.9826 28.4563C19.9788 28.4563 20.3546 28.4436 21.5313 28.3899C22.7056 28.3363 23.5076 28.1498 24.2093 27.8771C24.9348 27.5952 25.55 27.2179 26.1634 26.6046C26.7767 25.9913 27.154 25.3759 27.4359 24.6505C27.7087 23.9487 27.8952 23.1467 27.9487 21.9724C28.0025 20.7957 28.0151 20.42 28.0151 17.4237C28.0151 14.4274 28.0025 14.0517 27.9487 12.875C27.8952 11.7007 27.7087 10.8987 27.4359 10.197C27.154 9.47148 26.7767 8.85616 26.1634 8.24282C25.55 7.62949 24.9348 7.25224 24.2093 6.97031C23.5076 6.69761 22.7056 6.51114 21.5313 6.45751C20.3546 6.40373 19.9788 6.39111 16.9826 6.39111ZM16.9826 8.37895C19.9284 8.37895 20.2772 8.39017 21.4407 8.44322C22.5163 8.49231 23.1005 8.6721 23.4892 8.82313C24.0043 9.02329 24.3718 9.26237 24.7578 9.64842C25.1439 10.0345 25.383 10.402 25.5831 10.917C25.7341 11.3057 25.9139 11.89 25.963 12.9655C26.016 14.129 26.0273 14.4778 26.0273 17.4237C26.0273 20.3696 26.016 20.7184 25.963 21.8818C25.9139 22.9575 25.7341 23.5417 25.5831 23.9304C25.383 24.4454 25.1439 24.8129 24.7578 25.199C24.3718 25.585 24.0043 25.8241 23.4892 26.0242C23.1005 26.1753 22.5163 26.3551 21.4407 26.4041C20.2774 26.4572 19.9286 26.4684 16.9826 26.4684C14.0365 26.4684 13.6877 26.4572 12.5244 26.4041C11.4488 26.3551 10.8646 26.1753 10.4759 26.0242C9.9609 25.8241 9.59337 25.585 9.20732 25.199C8.82132 24.8129 8.58223 24.4454 8.38208 23.9304C8.231 23.5417 8.05125 22.9575 8.00212 21.8818C7.94912 20.7184 7.93785 20.3696 7.93785 17.4237C7.93785 14.4778 7.94912 14.129 8.00212 12.9655C8.05125 11.89 8.231 11.3057 8.38208 10.917C8.58223 10.402 8.82132 10.0345 9.20732 9.64842C9.59337 9.26237 9.9609 9.02329 10.4759 8.82313C10.8646 8.6721 11.4488 8.49231 12.5244 8.44322C13.6879 8.39017 14.0367 8.37895 16.9826 8.37895Z" fill="white"/>
</g>
</g>
<path id="Fill 4" fill-rule="evenodd" clip-rule="evenodd" d="M16.9825 21.1012C14.9515 21.1012 13.305 19.4547 13.305 17.4236C13.305 15.3926 14.9515 13.7461 16.9825 13.7461C19.0136 13.7461 20.6601 15.3926 20.6601 17.4236C20.6601 19.4547 19.0136 21.1012 16.9825 21.1012ZM16.9825 11.7583C13.8537 11.7583 11.3172 14.2948 11.3172 17.4236C11.3172 20.5526 13.8537 23.089 16.9825 23.089C20.1114 23.089 22.6479 20.5526 22.6479 17.4236C22.6479 14.2948 20.1114 11.7583 16.9825 11.7583Z" fill="white"/>
<path id="Fill 5" fill-rule="evenodd" clip-rule="evenodd" d="M24.1957 11.5344C24.1957 12.2655 23.603 12.8583 22.8718 12.8583C22.1406 12.8583 21.5479 12.2655 21.5479 11.5344C21.5479 10.8032 22.1406 10.2104 22.8718 10.2104C23.603 10.2104 24.1957 10.8032 24.1957 11.5344Z" fill="white"/>
</g>
</g>
</g>
</g>
</g>
</svg>
