<svg width="34" height="35" viewBox="0 0 34 35" fill="none" xmlns="http://www.w3.org/2000/svg">
<g id="Frame">
<g id="Homepage">
<g id="Homepage Copy 13">
<g id="Group 14">
<g id="Group 11">
<path id="Path 6" fill-rule="evenodd" clip-rule="evenodd" d="M11.067 14.0063H6.80005V26.4312H11.067V14.0063Z" fill="white"/>
<path id="Path 4" fill-rule="evenodd" clip-rule="evenodd" d="M11.1755 8.77581C11.1478 7.40246 10.2489 6.35645 8.7891 6.35645C7.32934 6.35645 6.375 7.40246 6.375 8.77581C6.375 10.1207 7.30113 11.1968 8.73371 11.1968H8.76098C10.2489 11.1968 11.1755 10.1207 11.1755 8.77581Z" fill="white"/>
<path id="Path 5" fill-rule="evenodd" clip-rule="evenodd" d="M27.2036 19.3441C27.2036 15.5277 25.0979 13.7515 22.2892 13.7515C20.023 13.7515 19.0084 14.9574 18.4419 15.8034V14.0436H14.1731C14.2294 15.2094 14.1731 26.4684 14.1731 26.4684H18.4419V19.5293C18.4419 19.158 18.4696 18.7876 18.5825 18.5217C18.8909 17.7799 19.5933 17.0118 20.7725 17.0118C22.3177 17.0118 22.9353 18.1511 22.9353 19.8208V26.4681H27.2034L27.2036 19.3441Z" fill="white"/>
</g>
</g>
</g>
</g>
</g>
</svg>
