<svg width="34" height="35" viewBox="0 0 34 35" fill="none" xmlns="http://www.w3.org/2000/svg">
<g id="Frame">
<g id="Homepage">
<g id="Homepage Copy 13">
<g id="Group 13">
<g id="Twitter bird logo 2012">
<path id="Shape" d="M13.8115 25.7861C21.1268 25.7861 25.1273 19.6446 25.1273 14.3189C25.1273 14.1445 25.1238 13.9708 25.1161 13.798C25.8927 13.2291 26.5676 12.5192 27.1 11.711C26.3874 12.032 25.6205 12.2481 24.816 12.3455C25.6371 11.8465 26.2675 11.0573 26.5649 10.1163C25.7965 10.578 24.9456 10.9135 24.0395 11.0946C23.3137 10.3113 22.2805 9.82129 21.1364 9.82129C18.9401 9.82129 17.1591 11.6262 17.1591 13.851C17.1591 14.1673 17.194 14.4749 17.2622 14.77C13.9568 14.6014 11.0258 12.9977 9.06416 10.5591C8.7226 11.1547 8.52565 11.8466 8.52565 12.5848C8.52565 13.983 9.22779 15.2174 10.2955 15.9396C9.64299 15.9191 9.03004 15.7376 8.4943 15.4355C8.49371 15.4524 8.49371 15.4689 8.49371 15.487C8.49371 17.4388 9.86461 19.0684 11.6844 19.4377C11.3502 19.53 10.9986 19.5796 10.6357 19.5796C10.3798 19.5796 10.1305 19.554 9.88822 19.5069C10.3945 21.1082 11.8628 22.2735 13.6035 22.3061C12.2423 23.3873 10.5275 24.0312 8.66388 24.0312C8.34325 24.0312 8.02651 24.0128 7.71521 23.9755C9.47536 25.1187 11.5654 25.7858 13.8117 25.7858" fill="white"/>
</g>
</g>
</g>
</g>
</g>
</svg>
